<?xml version="1.0" encoding="UTF-8"?> <svg xmlns="http://www.w3.org/2000/svg" width="401" height="401" viewBox="0 0 401 401" fill="none"> <path d="M292 4.5H109C51.2862 4.5 4.5 51.2862 4.5 109V292C4.5 349.714 51.2862 396.5 109 396.5H292C349.714 396.5 396.5 349.714 396.5 292V109C396.5 51.2862 349.714 4.5 292 4.5Z" fill="url(#paint0_linear_3165_29)" stroke="white" stroke-width="9"></path> <g filter="url(#filter0_d_3165_29)"> <path d="M219 78.5H183C165.603 78.5 151.5 92.603 151.5 110V127C151.5 144.397 165.603 158.5 183 158.5H219C236.397 158.5 250.5 144.397 250.5 127V110C250.5 92.603 236.397 78.5 219 78.5Z" stroke="white" stroke-width="25"></path> </g> <g filter="url(#filter1_d_3165_29)"> <path d="M277 118H124C93.0721 118 68 143.072 68 174V278C68 308.928 93.0721 334 124 334H277C307.928 334 333 308.928 333 278V174C333 143.072 307.928 118 277 118Z" fill="white"></path> <path d="M277 120H124C94.1766 120 70 144.177 70 174V278C70 307.823 94.1766 332 124 332H277C306.823 332 331 307.823 331 278V174C331 144.177 306.823 120 277 120Z" stroke="#CCCCCC" stroke-width="4"></path> </g> <path d="M135.592 276C129.2 276 126.004 272.804 126.004 266.412V186.183C126.004 179.791 129.2 176.595 135.592 176.595H185.929C190.817 176.595 193.261 178.945 193.261 183.645C193.261 188.533 190.817 190.977 185.929 190.977H143.347V218.331H182.827C187.715 218.331 190.159 220.728 190.159 225.522C190.159 230.316 187.715 232.713 182.827 232.713H143.347V261.618H185.929C190.817 261.618 193.261 264.015 193.261 268.809C193.261 273.603 190.817 276 185.929 276H135.592ZM243.022 277.41C236.724 277.41 230.567 276.705 224.551 275.295C218.629 273.885 213.459 271.77 209.041 268.95C206.879 267.54 205.563 265.801 205.093 263.733C204.623 261.665 204.764 259.738 205.516 257.952C206.362 256.072 207.631 254.803 209.323 254.145C211.109 253.393 213.13 253.722 215.386 255.132C219.522 257.576 223.893 259.362 228.499 260.49C233.105 261.618 237.946 262.182 243.022 262.182C250.448 262.182 255.853 260.96 259.237 258.516C262.621 255.978 264.313 252.735 264.313 248.787C264.313 245.497 263.091 242.912 260.647 241.032C258.297 239.152 254.208 237.601 248.38 236.379L232.87 233.136C215.198 229.376 206.362 220.305 206.362 205.923C206.362 199.719 208.007 194.314 211.297 189.708C214.587 185.102 219.146 181.53 224.974 178.992C230.802 176.454 237.523 175.185 245.137 175.185C250.777 175.185 256.135 175.89 261.211 177.3C266.287 178.71 270.846 180.778 274.888 183.504C276.768 184.82 277.896 186.465 278.272 188.439C278.648 190.319 278.413 192.105 277.567 193.797C276.721 195.395 275.358 196.523 273.478 197.181C271.692 197.745 269.577 197.322 267.133 195.912C263.655 193.938 260.13 192.528 256.558 191.682C252.986 190.836 249.132 190.413 244.996 190.413C238.51 190.413 233.434 191.776 229.768 194.502C226.102 197.228 224.269 200.8 224.269 205.218C224.269 208.602 225.397 211.328 227.653 213.396C229.909 215.37 233.763 216.921 239.215 218.049L254.584 221.292C263.89 223.266 270.799 226.368 275.311 230.598C279.917 234.828 282.22 240.468 282.22 247.518C282.22 253.44 280.622 258.657 277.426 263.169C274.23 267.681 269.671 271.206 263.749 273.744C257.921 276.188 251.012 277.41 243.022 277.41Z" fill="url(#paint1_linear_3165_29)"></path> <defs> <filter id="filter0_d_3165_29" x="124" y="55" width="154" height="135" filterUnits="userSpaceOnUse" color-interpolation-filters="sRGB"> <feFlood flood-opacity="0" result="BackgroundImageFix"></feFlood> <feColorMatrix in="SourceAlpha" type="matrix" values="0 0 0 0 0 0 0 0 0 0 0 0 0 0 0 0 0 0 127 0" result="hardAlpha"></feColorMatrix> <feOffset dy="4"></feOffset> <feGaussianBlur stdDeviation="7.5"></feGaussianBlur> <feColorMatrix type="matrix" values="0 0 0 0 0 0 0 0 0 0 0 0 0 0 0 0 0 0 0.25 0"></feColorMatrix> <feBlend mode="normal" in2="BackgroundImageFix" result="effect1_dropShadow_3165_29"></feBlend> <feBlend mode="normal" in="SourceGraphic" in2="effect1_dropShadow_3165_29" result="shape"></feBlend> </filter> <filter id="filter1_d_3165_29" x="53" y="107" width="295" height="246" filterUnits="userSpaceOnUse" color-interpolation-filters="sRGB"> <feFlood flood-opacity="0" result="BackgroundImageFix"></feFlood> <feColorMatrix in="SourceAlpha" type="matrix" values="0 0 0 0 0 0 0 0 0 0 0 0 0 0 0 0 0 0 127 0" result="hardAlpha"></feColorMatrix> <feOffset dy="4"></feOffset> <feGaussianBlur stdDeviation="7.5"></feGaussianBlur> <feColorMatrix type="matrix" values="0 0 0 0 0 0 0 0 0 0 0 0 0 0 0 0 0 0 0.25 0"></feColorMatrix> <feBlend mode="normal" in2="BackgroundImageFix" result="effect1_dropShadow_3165_29"></feBlend> <feBlend mode="normal" in="SourceGraphic" in2="effect1_dropShadow_3165_29" result="shape"></feBlend> </filter> <linearGradient id="paint0_linear_3165_29" x1="-6.09731e-08" y1="-6.09731e-08" x2="401" y2="401" gradientUnits="userSpaceOnUse"> <stop stop-color="#66CC88"></stop> <stop offset="1" stop-color="#578FC7"></stop> </linearGradient> <linearGradient id="paint1_linear_3165_29" x1="47.3861" y1="58.2684" x2="336.592" y2="371.135" gradientUnits="userSpaceOnUse"> <stop stop-color="#66CC88"></stop> <stop offset="1" stop-color="#578FC7"></stop> </linearGradient> </defs> </svg> 